<svg width="130" height="46" viewBox="0 0 130 46" fill="none" xmlns="http://www.w3.org/2000/svg">
<path d="M117.516 13.7228V3.84237H118.462V12.2653L125.503 3.84237H126.336V13.7228H125.39V5.29982L118.348 13.7228H117.516ZM121.888 2.32814C121.118 2.32814 120.481 2.12624 119.976 1.72244C119.484 1.30603 119.225 0.73188 119.2 0H119.901C119.926 0.517364 120.121 0.927469 120.487 1.23032C120.866 1.53316 121.333 1.68459 121.888 1.68459C122.443 1.68459 122.904 1.53316 123.27 1.23032C123.648 0.927469 123.844 0.517364 123.856 0H124.576C124.563 0.73188 124.304 1.30603 123.8 1.72244C123.308 2.12624 122.67 2.32814 121.888 2.32814Z" fill="#575757"/>
<path d="M103.443 13.7983C102.446 13.7983 101.563 13.5838 100.793 13.1548C100.036 12.7258 99.4368 12.1327 98.9951 11.3756C98.5661 10.6185 98.3516 9.75408 98.3516 8.78244C98.3516 7.79819 98.5535 6.93382 98.9573 6.18932C99.3737 5.4322 99.9415 4.83912 100.661 4.41009C101.38 3.98106 102.188 3.76654 103.084 3.76654C103.979 3.76654 104.781 3.97475 105.487 4.39116C106.207 4.80758 106.768 5.39434 107.172 6.15146C107.588 6.89596 107.797 7.76033 107.797 8.74459C107.797 8.78244 107.79 8.82661 107.778 8.87708C107.778 8.91494 107.778 8.9591 107.778 9.00958H99.0519V8.27139H107.267L106.888 8.63102C106.901 7.86128 106.737 7.17357 106.396 6.56788C106.068 5.94956 105.62 5.47005 105.052 5.12935C104.484 4.77603 103.828 4.59937 103.084 4.59937C102.352 4.59937 101.695 4.77603 101.115 5.12935C100.547 5.47005 100.099 5.94956 99.7712 6.56788C99.4431 7.17357 99.279 7.86759 99.279 8.64995V8.8203C99.279 9.62789 99.4557 10.3472 99.809 10.9781C100.175 11.5964 100.673 12.0822 101.304 12.4355C101.935 12.7762 102.655 12.9466 103.462 12.9466C104.093 12.9466 104.68 12.833 105.222 12.6059C105.778 12.3788 106.245 12.0317 106.623 11.5649L107.172 12.1895C106.743 12.7195 106.2 13.1233 105.544 13.4009C104.901 13.6659 104.2 13.7983 103.443 13.7983Z" fill="#575757"/>
<path d="M85.2097 13.8175C84.5283 13.8175 83.8406 13.7102 83.1466 13.4957C82.4525 13.2812 81.8405 12.9531 81.3105 12.5115L81.6702 11.8111C82.1497 12.2149 82.7049 12.5178 83.3358 12.7197C83.9668 12.9089 84.5977 12.9973 85.2286 12.9846C85.8722 12.9846 86.4337 12.89 86.9132 12.7007C87.4053 12.5115 87.7839 12.2528 88.0489 11.9247C88.3139 11.5966 88.4464 11.2307 88.4464 10.8269C88.4464 10.2338 88.1814 9.77321 87.6514 9.44513C87.1214 9.11704 86.3959 8.953 85.4747 8.953H83.8847V8.23374H85.4368C85.9668 8.23374 86.4337 8.16434 86.8375 8.02553C87.2539 7.88673 87.5757 7.68483 87.8028 7.41984C88.0426 7.14223 88.1625 6.82045 88.1625 6.45451C88.1625 6.05072 88.0237 5.71001 87.746 5.4324C87.4811 5.14217 87.1151 4.92766 86.6482 4.78885C86.194 4.65005 85.6829 4.58065 85.1151 4.58065C84.6229 4.59326 84.1119 4.66898 83.5819 4.80778C83.0645 4.94659 82.5535 5.15479 82.0487 5.4324L81.7459 4.67529C82.3011 4.37244 82.8626 4.1453 83.4305 3.99388C83.9983 3.84246 84.5725 3.76044 85.1529 3.74782C85.8848 3.7352 86.5536 3.83615 87.1593 4.05066C87.765 4.25256 88.2445 4.5491 88.5978 4.94028C88.9511 5.31884 89.1278 5.77942 89.1278 6.32202C89.1278 6.81414 88.9764 7.24318 88.6735 7.60912C88.3833 7.96244 87.9795 8.24005 87.4621 8.44194C86.9574 8.64384 86.3895 8.74479 85.7586 8.74479L85.8343 8.44194C86.97 8.44194 87.847 8.66277 88.4653 9.10442C89.0962 9.54607 89.4117 10.1392 89.4117 10.8836C89.4117 11.4767 89.2224 11.9941 88.8439 12.4357C88.4653 12.8774 87.9543 13.2181 87.3107 13.4578C86.6798 13.6976 85.9794 13.8175 85.2097 13.8175Z" fill="#575757"/>
<path d="M65.9563 17.4705C65.502 17.4705 65.073 17.3948 64.6692 17.2434C64.278 17.092 63.9436 16.8711 63.666 16.5809L64.1392 15.8616C64.3916 16.1266 64.6629 16.3222 64.9531 16.4484C65.256 16.5746 65.5967 16.6377 65.9752 16.6377C66.4295 16.6377 66.827 16.5115 67.1677 16.2591C67.521 16.0068 67.8491 15.5462 68.1519 14.8774L68.8333 13.3632L68.9658 13.1928L73.1489 3.84241H74.1142L69.0415 15.0667C68.7766 15.6724 68.4863 16.1456 68.1709 16.4863C67.868 16.8396 67.5336 17.092 67.1677 17.2434C66.8017 17.3948 66.3979 17.4705 65.9563 17.4705ZM68.8144 13.9689L64.2339 3.84241H65.237L69.4012 13.136L68.8144 13.9689Z" fill="#575757"/>
<path d="M44.6016 13.7228V3.84241H45.529L50.2042 11.6596H49.7878L54.4819 3.84241H55.3526V13.7228H54.4819V4.97808L54.6712 5.05379L50.1853 12.4546H49.75L45.2451 4.99701L45.4722 4.95915V13.7228H44.6016Z" fill="#575757"/>
<path d="M116.289 45.8251H112.49V19.7791H129.659V45.8251H125.823V34.7369H116.289V45.8251ZM116.289 23.6116V30.9045H125.823V23.6116H116.289Z" fill="#FF8040"/>
<path d="M94.0273 23.6488V29.8998H109.185V45.8251H90.1914V19.7791H109.185V23.6488H94.0273ZM94.0273 33.7323V41.9554H105.312V33.7323H94.0273Z" fill="#FF8040"/>
<path d="M86.1158 38.0147C84.0899 42.714 79.3985 46 73.9252 46C66.5682 46 60.6328 40.0993 60.6328 32.7854C60.6328 25.4714 66.5682 19.5707 73.9252 19.5707C81.2822 19.5707 87.2175 25.4714 87.2175 32.7854C87.2175 33.2094 87.182 33.6334 87.1464 34.022H64.4712C64.72 36.1067 65.6796 38.0147 67.1724 39.4987C68.985 41.3007 71.3662 42.29 73.9252 42.29C76.4841 42.29 78.8654 41.3007 80.678 39.4987C81.2111 38.9333 81.7087 38.3327 82.0996 37.6967L86.1158 38.0147ZM73.9252 23.2807C71.3662 23.2807 68.985 24.2701 67.1724 26.0721C65.964 27.2734 65.111 28.7927 64.6845 30.3827H83.1659C82.7394 28.7927 81.8864 27.2734 80.678 26.0721C78.8654 24.2701 76.4841 23.2807 73.9252 23.2807Z" fill="#FF8040"/>
<path d="M43.5676 45.8251H39.3965L44.3869 19.7791H57.3098V45.8251H53.4739V23.6116H47.8131L43.5676 45.8251Z" fill="#FF8040"/>
<path d="M8.97056 3.7132L18.314 19.1422H18.6455L28.0304 3.7132H36.7938L23.7212 24.7789L37.001 45.8445H28.0926L18.6455 30.5184H18.314L8.86697 45.8445H0L13.404 24.7789L0.165738 3.7132H8.97056Z" fill="#FF8040"/>
</svg>
