<svg width="20" height="17" viewBox="0 0 20 17" fill="none" xmlns="http://www.w3.org/2000/svg">
<mask id="path-1-inside-1_28_209" fill="white">
<path d="M0 14.5714V17H20V14.5714H0Z"/>
<path d="M0 7.28572V9.71429H20V7.28572H0Z"/>
<path d="M0 0V2.42857H20V0H0Z"/>
</mask>
<path d="M0 17H-788V805H0V17ZM0 14.5714V-773.429H-788V14.5714H0ZM20 14.5714H808V-773.429H20V14.5714ZM20 17V805H808V17H20ZM0 9.71429H-788V797.714H0V9.71429ZM0 7.28572V-780.714H-788V7.28572H0ZM20 7.28572H808V-780.714H20V7.28572ZM20 9.71429V797.714H808V9.71429H20ZM0 2.42857H-788V790.429H0V2.42857ZM0 0V-788H-788V0H0ZM20 0H808V-788H20V0ZM20 2.42857V790.429H808V2.42857H20ZM788 17V14.5714H-788V17H788ZM0 802.571H20V-773.429H0V802.571ZM-768 14.5714V17H808V14.5714H-768ZM20 -771H0V805H20V-771ZM788 9.71429V7.28572H-788V9.71429H788ZM0 795.286H20V-780.714H0V795.286ZM-768 7.28572V9.71429H808V7.28572H-768ZM20 -778.286H0V797.714H20V-778.286ZM788 2.42857V0H-788V2.42857H788ZM0 788H20V-788H0V788ZM-768 0V2.42857H808V0H-768ZM20 -785.571H0V790.429H20V-785.571Z" fill="black" mask="url(#path-1-inside-1_28_209)"/>
</svg>
