<svg width="44" height="40" viewBox="0 0 44 40" fill="none" xmlns="http://www.w3.org/2000/svg">
<ellipse cx="22.2948" cy="20" rx="21.5214" ry="20" fill="#FF8040"/>
<path d="M22.2942 17.9C21.6949 17.9 21.1201 18.1212 20.6963 18.5151C20.2725 18.9089 20.0345 19.443 20.0345 20C20.0345 20.557 20.2725 21.0911 20.6963 21.4849C21.1201 21.8788 21.6949 22.1 22.2942 22.1C22.8935 22.1 23.4683 21.8788 23.8921 21.4849C24.3159 21.0911 24.5539 20.557 24.5539 20C24.5539 19.443 24.3159 18.9089 23.8921 18.5151C23.4683 18.1212 22.8935 17.9 22.2942 17.9ZM22.2942 16.5C23.2931 16.5 24.251 16.8687 24.9573 17.5251C25.6636 18.1815 26.0604 19.0717 26.0604 20C26.0604 20.9283 25.6636 21.8185 24.9573 22.4749C24.251 23.1313 23.2931 23.5 22.2942 23.5C21.2953 23.5 20.3374 23.1313 19.6311 22.4749C18.9248 21.8185 18.528 20.9283 18.528 20C18.528 19.0717 18.9248 18.1815 19.6311 17.5251C20.3374 16.8687 21.2953 16.5 22.2942 16.5ZM27.1903 16.325C27.1903 16.5571 27.0911 16.7796 26.9145 16.9437C26.738 17.1078 26.4985 17.2 26.2487 17.2C25.999 17.2 25.7595 17.1078 25.583 16.9437C25.4064 16.7796 25.3072 16.5571 25.3072 16.325C25.3072 16.0929 25.4064 15.8704 25.583 15.7063C25.7595 15.5422 25.999 15.45 26.2487 15.45C26.4985 15.45 26.738 15.5422 26.9145 15.7063C27.0911 15.8704 27.1903 16.0929 27.1903 16.325ZM22.2942 14.4C20.4307 14.4 20.1263 14.4049 19.2594 14.4406C18.6688 14.4665 18.2726 14.54 17.905 14.673C17.5781 14.7906 17.3423 14.9313 17.0915 15.1651C16.8558 15.3768 16.6745 15.6352 16.5612 15.9211C16.4181 16.2641 16.339 16.6316 16.3119 17.1797C16.2727 17.9525 16.2682 18.2227 16.2682 20C16.2682 21.7318 16.2735 22.0146 16.3119 22.8203C16.3398 23.3684 16.4189 23.7373 16.5612 24.0782C16.6893 24.3827 16.8399 24.6018 17.09 24.8342C17.3439 25.0694 17.5796 25.2101 17.9035 25.3263C18.2756 25.46 18.6718 25.5342 19.2594 25.5594C20.0909 25.5958 20.3817 25.6 22.2942 25.6C24.1577 25.6 24.462 25.5951 25.329 25.5594C25.9181 25.5335 26.315 25.46 26.6826 25.3277C27.0088 25.2094 27.246 25.0687 27.4961 24.8363C27.75 24.6004 27.9014 24.3813 28.0264 24.0803C28.1695 23.7352 28.2494 23.3663 28.2765 22.8203C28.3157 22.0475 28.3202 21.7773 28.3202 20C28.3202 18.2682 28.3149 17.9854 28.2765 17.1797C28.2486 16.6323 28.1695 16.2627 28.0264 15.9211C27.9129 15.6355 27.7319 15.3772 27.4969 15.1651C27.2692 14.9459 26.9911 14.7774 26.6834 14.6723C26.3143 14.5393 25.9181 14.4658 25.329 14.4406C24.4974 14.4042 24.2067 14.4 22.2942 14.4ZM22.2942 13C24.3408 13 24.5961 13.007 25.3991 13.042C26.2013 13.077 26.7474 13.1939 27.228 13.3675C27.7251 13.5453 28.1439 13.7861 28.5627 14.1746C28.9457 14.5245 29.2421 14.9478 29.4312 15.415C29.6173 15.8609 29.7438 16.3691 29.7815 17.1146C29.8169 17.8608 29.8267 18.0981 29.8267 20C29.8267 21.9019 29.8191 22.1392 29.7815 22.8854C29.7438 23.6309 29.6173 24.1384 29.4312 24.585C29.2427 25.0524 28.9462 25.4758 28.5627 25.8254C28.1861 26.1812 27.7306 26.4566 27.228 26.6325C26.7482 26.8054 26.2013 26.923 25.3991 26.958C24.5961 26.9909 24.3408 27 22.2942 27C20.2476 27 19.9923 26.993 19.1893 26.958C18.3871 26.923 17.841 26.8054 17.3604 26.6325C16.8575 26.4571 16.4019 26.1817 16.0257 25.8254C15.6426 25.4755 15.3462 25.0522 15.1572 24.585C14.9704 24.1391 14.8446 23.6309 14.8069 22.8854C14.7715 22.1392 14.7617 21.9019 14.7617 20C14.7617 18.0981 14.7693 17.8608 14.8069 17.1146C14.8446 16.3684 14.9704 15.8616 15.1572 15.415C15.3457 14.9475 15.6421 14.5241 16.0257 14.1746C16.402 13.8185 16.8576 13.543 17.3604 13.3675C17.841 13.1939 18.3863 13.077 19.1893 13.042C19.9923 13.0091 20.2476 13 22.2942 13Z" fill="white"/>
</svg>
