<svg width="44" height="40" viewBox="0 0 44 40" fill="none" xmlns="http://www.w3.org/2000/svg">
<path d="M43.1326 20C43.1326 30.7357 33.7561 39.5 22.1112 39.5C10.4663 39.5 1.08984 30.7357 1.08984 20C1.08984 9.26434 10.4663 0.5 22.1112 0.5C33.7561 0.5 43.1326 9.26434 43.1326 20Z" stroke="black"/>
<path d="M25.1868 14.5629C24.5481 14.5628 23.9349 14.7957 23.4791 15.2115C23.0234 15.6273 22.7615 16.1927 22.7498 16.7862L22.7263 18.0161C22.7249 18.0822 22.7085 18.1472 22.6782 18.2069C22.6479 18.2667 22.6043 18.3198 22.5503 18.3628C22.4964 18.4058 22.4333 18.4377 22.3651 18.4564C22.2969 18.4751 22.2253 18.4802 22.1549 18.4714L20.8431 18.3058C19.1171 18.0872 17.4633 17.3484 15.8767 16.12C15.3742 18.7049 16.3557 20.4956 18.7196 21.877L20.1876 22.7345C20.2574 22.7752 20.3153 22.8312 20.3564 22.8976C20.3975 22.964 20.4204 23.0387 20.4233 23.1152C20.4261 23.1917 20.4087 23.2677 20.3726 23.3365C20.3365 23.4053 20.2828 23.4649 20.2162 23.51L18.8784 24.4182C19.6742 24.4642 20.4296 24.4314 21.0565 24.3159C25.0212 23.5802 27.6573 20.8079 27.6573 16.2348C27.6573 15.8615 26.8069 14.5629 25.1868 14.5629ZM21.0691 16.7573C21.0838 16.0045 21.3371 15.2725 21.7973 14.6528C22.2576 14.0332 22.9043 13.5535 23.6565 13.2738C24.4086 12.9941 25.2329 12.9269 26.026 13.0805C26.8192 13.234 27.5459 13.6017 28.1153 14.1373C28.7128 14.1334 29.2212 14.2739 30.3582 13.6336C30.0767 14.9143 29.938 15.4703 29.338 16.2348C29.338 22.2027 25.391 25.1046 21.3859 25.8473C18.6397 26.3564 14.6465 25.5201 13.502 24.4096C14.0851 24.3674 16.4549 24.1308 17.8246 23.1991C16.6658 22.4893 12.0532 19.9669 15.0843 13.1853C16.507 14.7292 17.9498 15.7803 19.412 16.3379C20.3851 16.7089 20.6238 16.701 21.07 16.758L21.0691 16.7573Z" fill="black"/>
</svg>
