<svg width="44" height="40" viewBox="0 0 44 40" fill="none" xmlns="http://www.w3.org/2000/svg">
<path d="M43.4998 20C43.4998 30.7357 34.1233 39.5 22.4784 39.5C10.8335 39.5 1.45703 30.7357 1.45703 20C1.45703 9.26434 10.8335 0.5 22.4784 0.5C34.1233 0.5 43.4998 9.26434 43.4998 20Z" stroke="black"/>
<path d="M22.8161 17.4943C23.5491 16.7982 24.5035 16.3429 25.6139 16.3429C26.7799 16.3429 27.8982 16.7733 28.7227 17.5395C29.5472 18.3058 30.0104 19.345 30.0104 20.4286V26H28.4116V20.4286C28.4116 19.739 28.1169 19.0777 27.5922 18.5901C27.0675 18.1025 26.3559 17.8286 25.6139 17.8286C24.8718 17.8286 24.1602 18.1025 23.6355 18.5901C23.1109 19.0777 22.8161 19.739 22.8161 20.4286V26H21.2174V16.7143H22.8161V17.4943ZM17.2205 15.2286C16.9025 15.2286 16.5975 15.1112 16.3727 14.9022C16.1478 14.6932 16.0215 14.4098 16.0215 14.1143C16.0215 13.8188 16.1478 13.5353 16.3727 13.3264C16.5975 13.1174 16.9025 13 17.2205 13C17.5385 13 17.8435 13.1174 18.0684 13.3264C18.2933 13.5353 18.4196 13.8188 18.4196 14.1143C18.4196 14.4098 18.2933 14.6932 18.0684 14.9022C17.8435 15.1112 17.5385 15.2286 17.2205 15.2286ZM16.4212 16.7143H18.0199V26H16.4212V16.7143Z" fill="black"/>
</svg>
